<svg xmlns="http://www.w3.org/2000/svg" viewBox="0 0 132 132" width="256" height="256"><path fill="#1d2943" d="M67.6 98.3v2.5l-20.3 11.8-13.2-7.6 2-16.9 2.2 1.5 20.3-11.8L57 92.1z" class="color1d2943 svgShape"></path><path fill="#4c5c75" d="m38.3 89.6 20.3-11.8L57 92.1l-20.4 11.8z" class="color4c5c75 svgShape"></path><path fill="#1d2943" d="M36.6 103.9 57 92.1l10.6 6.2-20.3 11.8z" class="color1d2943 svgShape"></path><path fill="#4c5c75" d="m47.3 110.1 20.3-11.8v2.5l-20.3 11.8z" class="color4c5c75 svgShape"></path><path fill="#111d33" d="m36.1 88.1 2.2 1.5-1.7 14.3 10.7 6.2v2.5L34.1 105z" class="color111d33 svgShape"></path><path fill="#4c5c75" d="M86 4.4 7.5 109.8l-3.9-2.2c-.5-.3-.9-1-.9-1.9V50.4c0-1.8 1.3-4.1 2.9-5L80 2.4c.8-.5 1.5-.5 2.1-.2L86 4.4z" class="color4c5c75 svgShape"></path><path fill="#e3e7f0" d="M83.9 4.6c1.6-.9 2.9-.2 2.9 1.7l.2 55.3c0 1.9-1.3 4.1-2.9 5l-74.4 43c-1.6.9-2.9.2-2.9-1.7l-.3-55.2c0-1.9 1.3-4.1 2.9-5L83.9 4.6z" class="colore3e7f0 svgShape"></path><path fill="#8fabfe" d="M8.7 52.6c0-1.1.9-2.6 1.8-3.1L81.2 8.7c1.5-.9 3.4.2 3.4 2l.1 51c0 1.1-.9 2.6-1.8 3.1l-70.7 40.8c-1.5.9-3.4-.2-3.4-2l-.1-51z" class="color8fabfe svgShape"></path><path fill="#ffffff" d="M46.7 32.7c.8-.4 1.5-.5 2 .1l13.8 16.1c1.1 1.2-.1 4.4-2 5.5L33 70.2c-1.9 1.1-3.1-.7-2-3.1l13.7-32c.4-1.1 1.2-2 2-2.4z" class="colorfff svgShape"></path><path fill="#f45170" d="M46.8 56.5c.8-.5 1.5-.1 1.5.9s-.7 2.1-1.5 2.6-1.5.1-1.5-.9.7-2.1 1.5-2.6zm-.1-17.4c1.4-.8 2.5-.1 2.4 1.6l-.7 11.8c-.1 1-.8 2.2-1.6 2.7-.9.5-1.6.1-1.6-.8l-.8-11c-.1-1.5 1-3.5 2.3-4.3z" class="colorf45170 svgShape"></path><path fill="#1d2943" d="M72.4 64 21.1 93.6v-8.9l51.3-29.6z" class="color1d2943 svgShape"></path><path fill="#ffffff" d="m22.6 85 1.8-1 .1 6.5-1.9 1zM26.6 82.7l1.9-1.1v6.5l-1.9 1.1zM30.7 80.4l1.8-1.1.1 6.5-1.9 1.1zM34.7 78l1.9-1v6.5l-1.9 1zM38.8 75.7l1.8-1.1v6.5l-1.8 1.1zM42.8 73.4l1.9-1.1v6.5l-1.9 1.1zM46.9 71l1.8-1.1v6.5l-1.8 1.1z" class="colorfff svgShape"></path><path fill="#b0b8cf" d="M85.4 101.3s2.8 11.1 2.9 11.2 17.6-.5 17.6-.5l10-8s-6.5-9.2-6.8-9-14.7 2-15.1 1.9c-.4 0-8.6 4.4-8.6 4.4z" class="colorb0b8cf svgShape"></path><path fill="#455368" d="M127 101.2c-2.4 3.6-5.7 6.5-9.5 8.5l-13.2 6.7-1.9-.8-2.9-1.2 11.1-12.3c.5-.5.1-1.3-.6-1.3l-18.7 1.6 6.4-3.1s6.4-2.2 13.4-3.8c7.1-1.6 14.9-2.5 17.3.3.8 1.3-.1 3.3-1.4 5.4z" class="color455368 svgShape"></path><path fill="#455368" d="M121.6 102.2c-2.3 3.6-5.7 6.5-9.5 8.5l-9.7 4.9-2.9-1.2 11.1-12.3c.5-.5.1-1.3-.6-1.3l-18.7 1.6 6.4-3.1s6.4-2.2 13.4-3.8c5.3-.8 10.1-.7 11.8 1.4.8 1.2 0 3.3-1.3 5.3z" class="color455368 svgShape"></path><path fill="#ffd06c" d="m99.8 122.6-3.3-4.5 3.1-1s1.1 2.8 2.7 5l-2.5.5z" class="colorffd06c svgShape"></path><path fill="#febc1f" d="M104.8 128.9c0 .1-.1.3-.2.4-.4.5-1.1.7-1.8.7-1.8.1-3.6-1-4.7-2.4-.5-.6-.9-1.4-1.4-2-.5-.6-1.1-1.2-1.9-1.5-.3-.1-.7-.2-1-.4-.3-.2-.5-.4-.7-.7-.7-1.1-1.1-2.4-1.5-3.6 0-.1-.1-.3-.1-.4 0-.1.4-.2.5-.3.1 0 .2-.1.2-.1.2-.1.5-.3.7-.4.6-.4 1.3-.8 1.9-1.2.1-.1.9-.6.9-.6l4.8 4.2c.6.5 1.1 1 1.7 1.6l.1.1c1.2 1.3 2.1 3 2.4 4.8.3.6.4 1.2.1 1.8z" class="colorfebc1f svgShape"></path><path fill="#ffd06c" d="M104.8 128.9c-.4.2-.9.3-1.3.4-1.8 0-3.6-1-4.7-2.4-.5-.6-.9-1.4-1.4-2-.5-.6-1.1-1.2-1.9-1.5-.3-.1-.7-.2-1-.4-.3-.2-.5-.4-.7-.7-.7-1.1-1.1-2.4-1.5-3.6v-.1c.2-.1.5-.3.7-.4.6-.4 1.3-.8 1.9-1.2.1-.1.9-.6.9-.6l4.8 4.2c.6.5 1.1 1 1.7 1.6l.1.1c1.2 1.3 2.1 3 2.4 4.8.2.6.3 1.2 0 1.8z" class="colorffd06c svgShape"></path><path fill="#febc1f" d="M129.3 118.2c-.1.5-.4.9-.7 1.2-1.1.9-2.6 1-4 1.1-3.1.1-6.3-.2-9-1.7-.2-.1-.4-.2-.6-.4-.2-.2-.3-.3-.4-.5l-1.2-1.8c-.1-.2 0-.4.1-.6 0-.1.1-.2.1-.3.1-.3.3-.7.4-1 2-.2 4-.5 6.1-.5 2 0 4.1.2 5.9 1 1 .4 2 1.1 2.7 2 .2.2.3.4.4.6.2.1.3.5.2.9z" class="colorfebc1f svgShape"></path><path fill="#ffd06c" d="M129.1 117.1c-.1.5-.4.9-.7 1.2-1.1.9-2.6 1-4 1.1-3.1.1-6.3-.2-9-1.7-.2-.1-.4-.2-.6-.4-.2-.2-.3-.3-.4-.5-.3-.5-.7-.9-1-1.4 0-.1.1-.2.1-.3.1-.3.3-.7.4-1 2-.2 4-.5 6.1-.5 2 0 4.1.2 5.9 1 1 .4 2 1.1 2.7 2 .3 0 .4.3.5.5z" class="colorffd06c svgShape"></path><path fill="#4c5c75" d="M114.5 118.6c-16 1-30.6 2.7-34.4-3.5-2.5-4.1-1.3-12.9-1.3-12.9l3.1-.7L94 98.6l-.2 9.6c0 .6.4 1.1 1 1.3l19.9 4.3c.5 0 .9.7 1 1.4.2 1.4-.2 3.5-1.2 3.4z" class="color4c5c75 svgShape"></path><path fill="#4c5c75" d="M115.6 115.1c-14.9 1.4-28.3 3-32-2.8-1.8-2.8-1.9-8-1.8-10.8l12.1-2.9-.2 9.6c0 .6.4 1.1 1 1.3l19.9 4.3c.5-.1.9.6 1 1.3z" class="color4c5c75 svgShape"></path><path fill="#aa6256" d="M95.1 61.6s3.4 17.1 5.5 22.5c1.3 3.6 10 12.5 10 12.5l3.8-1.9 3.8-1.8s-9.5-8.5-10.9-12.1c-3.7-9.5-4.6-18.8-10.4-21.4l-1 1.2-.8 1z" class="coloraa6256 svgShape"></path><path fill="#bf7d5a" d="M95.8 60.7c1.8 5.5 6.1 18.4 8 22.5 1.4 3.1 9 10.1 10.6 11.5l3.8-1.8s-9.5-8.5-10.9-12.1c-3.7-9.5-4.6-18.8-10.4-21.4l-1.1 1.3z" class="colorbf7d5a svgShape"></path><path fill="#f3f1fc" d="m81.4 65.3 6.7 37.9c4.7.1 9.1-1.1 13.1-3.8l-1-29.7-3.5-6.6-5-4.8-10.3 7z" class="colorf3f1fc svgShape"></path><path fill="#f45170" d="M93.9 71.3c1.1.4 2.1 20.6 1.2 28.6l1.5 1.7.8-2.2c.4-7.9.4-18.5-2.2-28.5.5-.4.8-1.1 1.1-1.8l-2.9-1.6-1.5 2.9c.6.4 1.3.8 2 .9z" class="colorf45170 svgShape"></path><path fill="#dedffb" d="m96.8 65.6-.4 3.5-2.9-1.7c0-.1 1.5-2 1.7-4.4l1.6 2.6z" class="colordedffb svgShape"></path><path fill="#dba660" d="M79 92.7c.6 2.9.6 6-.1 8.9-.6 2.4 1.1 4.8 3.5 5.1 4 .6 9.5-.3 9.5-2.7.4-7.5.4-15-.5-22.3 0-.2-.1-.4-.2-.6-.5-1.8-1-3.6-1.7-5.5l-.1-.2c-.3-1-.7-2-1.1-3-.3-.9-.7-1.8-1.1-2.8-.9-2.3-1.7-4.5-2.3-6.6 0-.1-.1-.2-.1-.3h-.1c-2.8 1.5-6.4 3.9-9 6.1l1.8 18.3c.6 1.8 1.1 3.7 1.5 5.6z" class="colordba660 svgShape"></path><path fill="#f5c9c6" d="m85.6 61.6.7-2.6 9.4 1.9c.5 2.8-.9 4.2-2.2 6.5l-5.8-.2-2-4v-1.6z" class="colorf5c9c6 svgShape"></path><path fill="#dba660" d="M94.2 63c2.1 5.2 3.4 9.9 4.2 14.3.1.3.1.7.2 1 .4 4 .1 8.1.2 12.2.2 2.2.1 6.4-.1 10.8h4.1c-.2-3.1-.4-6.4-.8-10.3 0-.6-.1-1.1-.1-1.7l.4-15.6c.2-7.4-1.5-12.1-5.4-14.3L93 61.1l.8.8c.1.4.2.8.4 1.1z" class="colordba660 svgShape"></path><path fill="#dedffb" d="M85.6 61.6s-1.4 1.2-1.1 3.4c.2 1.2.9 2.2 1.9 2.9 1.6 1.1 3.4 1.8 5.5 2.3l1.5-2.9c-4.1-.8-7-2.5-7.8-5.7z" class="colordedffb svgShape"></path><path fill="#8a4852" d="M84.4 70.4 85 69l-1.2.5-.6-3.5c-.2-1.8.5-2.6 1.6-3.2h.1l.1.3 3.4 9.4 1.1 3 .1.2c.6 1.9 1.2 3.7 1.7 5.5l-6.9-10.8zm13.9 6.9c-.8-4.4-2.1-9.1-4.2-14.3 1.5.1 3 1.1 3.9 2.2l-.8.6 1 .3.1 11.2z" class="color8a4852 svgShape"></path><path fill="#dedffb" d="m122.9 101-.1 2.2c0 .1-.1.3-.3.4l-22.9 12.2c-.3.2-.9.2-1.2 0l-14-8.8c-.2-.1-.3-.2-.2-.4l.1-2.2 38.6-3.4z" class="colordedffb svgShape"></path><path fill="#ffffff" d="M84.5 104c-.3.2-.4.5 0 .7l14 8.8c.3.2.9.2 1.2 0l22.9-12.2c.4-.2.4-.5 0-.7l-14-8.8c-.3-.2-.9-.2-1.2 0L84.5 104z" class="colorfff svgShape"></path><path fill="#4c5c75" d="M100.5 106.8c.1 0 .1-.1 0-.2l-1-.6c-.1-.1-.2-.1-.3 0l-1.1.6c-.1 0-.1.1 0 .2l1 .6c.1.1.2.1.3 0l1.1-.6z" class="color4c5c75 svgShape"></path><path fill="#dedffb" d="M105.9 98.7c.1 0 .1-.1 0-.2l-4.2-2.7c-.1-.1-.2-.1-.3 0l-8.6 4.6c-.1 0-.1.1 0 .2l4.2 2.7c.1.1.2.1.3 0l8.6-4.6z" class="colordedffb svgShape"></path><path fill="#4c5c75" d="M110.8 105.7c.1 0 .1-.1 0-.2l-1-.6c-.1-.1-.2-.1-.3 0l-1.1.6c-.1 0-.1.1 0 .2l1 .6c.1.1.2.1.3 0l1.1-.6zm2.7-8.2c.1 0 .1-.1 0-.2l-1-.6c-.1-.1-.2-.1-.3 0l-1.1.6c-.1 0-.1.1 0 .2l1 .6c.1.1.2.1.3 0l1.1-.6zm-15.1 10.3c.1 0 .1-.1 0-.2l-1-.6c-.1-.1-.2-.1-.3 0l-1.1.6c-.1 0-.1.1 0 .2l1 .6c.1.1.2.1.3 0l1.1-.6zm-4-.1c.1 0 .1-.1 0-.2l-1-.6c-.1-.1-.2-.1-.3 0l-1.1.6c-.1 0-.1.1 0 .2l1 .6c.1.1.2.1.3 0l1.1-.6zm2.1-1.1c.1 0 .1-.1 0-.2l-1-.6c-.1-.1-.2-.1-.3 0l-1.1.6c-.1 0-.1.1 0 .2l1 .6c.1.1.2.1.3 0l1.1-.6zm3.6 4.7c.1 0 .1-.1 0-.2l-1-.6c-.1-.1-.2-.1-.3 0l-1.1.6c-.1 0-.1.1 0 .2l1 .6c.1.1.2.1.3 0l1.1-.6zm2.2-1.1c.1 0 .1-.1 0-.2l-1-.6c-.1-.1-.2-.1-.3 0l-1.1.6c-.1 0-.1.1 0 .2l1 .6c.1.1.2.1.3 0l1.1-.6z" class="color4c5c75 svgShape"></path><path fill="#4c5c75" d="M100.3 109c.1 0 .1-.1 0-.2l-1-.6c-.1-.1-.2-.1-.3 0l-2 1-1.8-1.1c-.1-.1-.2-.1-.3 0l-1.1.6c-.1 0-.1.1 0 .2l2.9 1.8c.1.1.2.1.3 0l3.3-1.7zm4.1.1c.1 0 .1-.1 0-.2l-1-.6c-.1-.1-.2-.1-.3 0l-1.1.6c-.1 0-.1.1 0 .2l1 .6c.1.1.2.1.3 0l1.1-.6zm-1.9-1.2c.1 0 .1-.1 0-.2l-1-.6c-.1-.1-.2-.1-.3 0l-1.1.6c-.1 0-.1.1 0 .2l1 .6c.1.1.2.1.3 0l1.1-.6zm4 0c.1 0 .1-.1 0-.2l-1-.6c-.1-.1-.2-.1-.3 0l-1.1.6c-.1 0-.1.1 0 .2l1 .6c.1.1.2.1.3 0l1.1-.6zm-1.9-1.2c.1 0 .1-.1 0-.2l-1-.6c-.1-.1-.2-.1-.3 0l-1.1.6c-.1 0-.1.1 0 .2l1 .6c.1.1.2.1.3 0l1.1-.6zm4 .1c.1 0 .1-.1 0-.2l-1-.6c-.1-.1-.2-.1-.3 0l-1.1.6c-.1 0-.1.1 0 .2l1 .6c.1.1.2.1.3 0l1.1-.6zm-5.9-1.3c.1 0 .1-.1 0-.2l-1-.6c-.1-.1-.2-.1-.3 0l-1.1.6c-.1 0-.1.1 0 .2l1 .6c.1.1.2.1.3 0l1.1-.6zm4 .1c.1 0 .1-.1 0-.2l-1-.6c-.1-.1-.2-.1-.3 0l-1.1.6c-.1 0-.1.1 0 .2l1 .6c.1.1.2.1.3 0l1.1-.6zm-1.9-1.2c.1 0 .1-.1 0-.2l-1-.6c-.1-.1-.2-.1-.3 0l-1.1.6c-.1 0-.1.1 0 .2l1 .6c.1.1.2.1.3 0l1.1-.6zm4 .1c.1 0 .1-.1 0-.2l-1-.6c-.1-.1-.2-.1-.3 0l-1.1.6c-.1 0-.1.1 0 .2l1 .6c.1.1.2.1.3 0l1.1-.6zm-1.9-1.2c.1 0 .1-.1 0-.2l-1-.6c-.1-.1-.2-.1-.3 0l-1.1.6c-.1 0-.1.1 0 .2l1 .6c.1.1.2.1.3 0l1.1-.6zm4.1 0c.1 0 .1-.1 0-.2l-1-.6c-.1-.1-.2-.1-.3 0l-1.1.6c-.1 0-.1.1 0 .2l1 .6c.1.1.2.1.3 0l1.1-.6zm-1.9-1.2c.1 0 .1-.1 0-.2l-1-.6c-.1-.1-.2-.1-.3 0l-1.1.6c-.1 0-.1.1 0 .2l1 .6c.1.1.2.1.3 0l1.1-.6zm8 .2c.1 0 .1-.1 0-.2l-1-.6c-.1-.1-.2-.1-.3 0l-1.1.6c-.1 0-.1.1 0 .2l1 .6c.1.1.2.1.3 0l1.1-.6zm2.2-1.2c.1 0 .1-.1 0-.2l-1-.6c-.1-.1-.2-.1-.3 0l-1.1.6c-.1 0-.1.1 0 .2l1 .6c.1.1.2.1.3 0l1.1-.6zm-10-1.3c.1 0 .1-.1 0-.2l-1-.6c-.1-.1-.2-.1-.3 0l-11.7 6.3c-.1 0-.1.1 0 .2l1 .6c.1.1.2.1.3 0l11.7-6.3zm8.1.1c.1 0 .1-.1 0-.2l-1-.6c-.1-.1-.2-.1-.3 0l-3.2 1.7c-.1 0-.1.1 0 .2l1 .6c.1.1.2.1.3 0l3.2-1.7zm-2-1.2c.1 0 .1-.1 0-.2l-1-.6c-.1-.1-.2-.1-.3 0l-5.4 2.9c-.1 0-.1.1 0 .2l1 .6c.1.1.2.1.3 0l5.4-2.9zm-2.5 5.8c.1 0 .1-.1 0-.2l-1-.6c-.1-.1-.2-.1-.3 0l-1.1.6c-.1 0-.1.1 0 .2l1 .6c.1.1.2.1.3 0l1.1-.6zm.2-2.3c.1 0 .1-.1 0-.2l-1-.6c-.1-.1-.2-.1-.3 0l-1.1.6c-.1 0-.1.1 0 .2l1 .6c.1.1.2.1.3 0l1.1-.6zm1.9 1.2c.1 0 .1-.1 0-.2l-1-.6c-.1-.1-.2-.1-.3 0l-1.1.6c-.1 0-.1.1 0 .2l1 .6c.1.1.2.1.3 0l1.1-.6zm-3.6-4.8c.1 0 .1-.1 0-.2l-1-.6c-.1-.1-.2-.1-.3 0l-1.1.6c-.1 0-.1.1 0 .2l1 .6c.1.1.2.1.3 0l1.1-.6z" class="color4c5c75 svgShape"></path><path fill="#1d2943" d="M125.1 84.8 100.8 115l-1.9-1.2c-.1-.1-.2-.2-.2-.4l.5-16.5c0-.4.3-.9.7-1l22.9-12.2c.2-.1.3-.1.5 0l1.8 1.1z" class="color1d2943 svgShape"></path><path fill="#b0b8cf" d="M124.6 84.8c.3-.2.6 0 .6.4l-.5 16.5c0 .4-.3.9-.7 1l-22.9 12.2c-.4.2-.6 0-.6-.4L101 98c0-.4.3-.9.7-1.1l22.9-12.1z" class="colorb0b8cf svgShape"></path><path fill="#4c5c75" d="M113 97.5c1.2-.6 2.1-.1 2 1.2 0 1.3-1 2.9-2.2 3.5-1.2.6-2.1.1-2-1.2.1-1.3 1-2.9 2.2-3.5z" class="color4c5c75 svgShape"></path><path fill="#f8f9fe" d="m95.1 112-.1 1.2-1.8-1.1v-1.2z" class="colorf8f9fe svgShape"></path><path fill="#4c5c75" d="m93.4 111.1-.1.9.8-.4z" class="color4c5c75 svgShape"></path><path fill="#1d2943" d="m93.3 112 1.6 1v-.9l-.8-.5z" class="color1d2943 svgShape"></path><path fill="#f8f9fe" d="m97.6 113.5-.1 1.2-1.8-1.1.1-1.2z" class="colorf8f9fe svgShape"></path><path fill="#4c5c75" d="m95.9 112.6-.1.9.8-.4z" class="color4c5c75 svgShape"></path><path fill="#1d2943" d="m95.8 113.5 1.6 1 .1-.9-.9-.5z" class="color1d2943 svgShape"></path><path fill="#f5c9c6" d="M123.6 103.1c-.5.7-2.7 3.2-6.5 3.5-.2 0-.4-.1-.5-.3-.2-1-.5-3.7 2.6-5 3.2-1.3 4.2.7 4.5 1.4.1.1 0 .3-.1.4z" class="colorf5c9c6 svgShape"></path><path fill="#f4d6d4" d="M84 56.7c-.2-.5-.4-1.1-.5-1.7-.2-1.1-.4-2.3-.2-3.4s.6-2.2 1.3-3.1c1.3-1.4 3.4-1.7 5.3-1.8 1.9-.1 3.8 0 5.7.3 2.2.3 4.1 1.3 4.2 3.7.1 1.3.2 2.6.2 3.9 0 1.4-.1 2.8-.4 4.1-.3 1.5-.7 3-1.3 4.4-.2.5-.5 1.1-.8 1.5-.4.4-.9.8-1.5.8-.6.1-1.2 0-1.8-.1-4.6-1.3-8.3-4.6-10.2-8.6z" class="colorf4d6d4 svgShape"></path><path fill="#1d2943" d="M98.5 51.2h-.8c-2.7-.1-5.3-.4-7.3-1.2-.6-.2-1.2.2-1.1.8.2 2 .2 3.9-.2 5.7-.1.2-.3.4-.5.4l-.4-.1c-.2 0-.4-.2-.4-.4-.1-.6-.2-1.2-.3-1.7-.2-.9-1.4-1.1-2-.4-.1.2-.2.3-.2.5s0 .4.1.6l.8 1.5c.2.5.1 1.2-.1 1.6-.1.1-.1.3-.2.4 0 .1-.1.2-.1.3-2.1-2.5-3.7-6.2-3.6-8.7 0-4 1.4-6.9 4.9-8.3 4-1.5 7.9-1.1 11.7 1.9l.6.6c.5.5.9 1.1 1.1 1.7.1.2.2.3.4.3.5.1.9 0 1.2-.3.2-.1.4 0 .4.3-.2 2.8-1.5 4.2-4 4.5z" class="color1d2943 svgShape"></path><path fill="#4c5c75" d="M98.5 51.2h-.8c-2.7-.1-5.3-.4-7.3-1.2-.6-.2-1.2.2-1.1.8.2 2 .2 3.9-.2 5.7-.1.2-.3.4-.5.4l-.4-.1c-.2 0-.4-.2-.4-.4-.1-.6-.2-1.2-.3-1.7-.2-.9-1.4-1.1-2-.4-.1.2-.2.3-.2.5s0 .4.1.6l.8 1.5c.2.5.1 1.2-.1 1.6-.1.1-.1.3-.2.4-1.7-2.4-2.8-5.4-2.8-7.5 0-4 1.4-6.9 4.9-8.3 3.9-1.4 7.7-1.1 11.4 1.6.5.5.9 1.1 1.1 1.7.1.2.2.3.4.3.5.1.9 0 1.2-.3.2-.1.4 0 .4.3-.2 2.8-1.5 4.2-4 4.5z" class="color4c5c75 svgShape"></path><path fill="#f5c9c6" d="M88.6 98.7s6.9-2.9 7.3-1.1c.4 1.7-2.9 1.8-2.9 1.8s5.1.1 5.2 1.6c.2 1.8-.5 4.5-5.4 3.7s-5.6-3.1-5.6-3.1l1.4-2.9z" class="colorf5c9c6 svgShape"></path><path fill="#ffffff" d="m86 96.2 3.1 1.9c1 .5-1.3 4.8-2.3 4.3 0 0-.6-.2-1.6-.5l.8-5.7z" class="colorfff svgShape"></path><path fill="#aa6256" d="M72 94.7c2.2 4.5 14 7.6 14 7.6.5.3 1.3-.6 1.9-1.7.7-1.3 1.2-2.8.6-3.1l-8.9-5.4c-.3-.2-.4-.5-.4-.9l3.4-17.9c.4-2.3-.9-4.5-3.2-5.2-.2-.1-.4-.1-.6-.1h-.5c-2.1-.1-4 1.3-4.5 3.4-1.6 6.9-3.8 19.2-1.8 23.3z" class="coloraa6256 svgShape"></path><path fill="#bf7d5a" d="M75.1 92.9c1.7 3.8 9.9 6.6 12.9 7.7.7-1.3 1.2-2.8.6-3.1l-8.9-5.4c-.3-.2-.4-.5-.4-.9l3.4-17.9c.4-2.3-.9-4.5-3.2-5.2-.2-.1-.4-.1-.6-.1h-.5c-.4.5-.7 1.1-.9 1.7-1.8 6.9-4.3 19.1-2.4 23.2z" class="colorbf7d5a svgShape"></path></svg>